<?xml version="1.0" encoding="utf-8"?>
<!-- Generator: Adobe Illustrator 19.1.0, SVG Export Plug-In . SVG Version: 6.00 Build 0)  -->
<svg version="1.1" id="Layer_1" xmlns="http://www.w3.org/2000/svg" xmlns:xlink="http://www.w3.org/1999/xlink" x="0px" y="0px"
	 viewBox="0 0 300 300.041" style="enable-background:new 0 0 300 300.041;" xml:space="preserve">
<g>
	<path style="fill:#323232;" d="M299.999,150.047c0.298,82.834-67.488,150.25-150.262,149.993C66.887,299.783,0.152,232.926,0,150
		C-0.151,67.25,67.535-0.378,150.467,0.002C233.254,0.38,300.027,67.151,299.999,150.047z M237.847,89.966
		c-0.622-1.281-0.996-2.57-1.763-3.551c-6.724-8.608-14.748-15.96-22.796-23.275c-2.007-1.824-4.383-1.697-6.555-0.059
		c-6.225,4.695-12.462,9.373-18.658,14.107c-0.843,0.644-1.47,0.667-2.428,0.245c-3.325-1.468-6.69-2.851-10.08-4.161
		c-0.862-0.333-1.228-0.705-1.366-1.638c-1.174-7.934-2.419-15.857-3.633-23.785c-0.503-3.284-2.161-4.773-5.515-4.78
		c-10.022-0.02-20.044-0.019-30.067,0c-3.333,0.006-4.919,1.088-5.497,4.392c-1.37,7.839-2.547,15.713-3.712,23.586
		c-0.189,1.28-0.601,1.938-1.87,2.41c-3.244,1.207-6.439,2.559-9.581,4.012c-1.151,0.532-1.875,0.45-2.86-0.328
		c-5.404-4.27-10.859-8.475-16.319-12.672c-4.524-3.478-5.638-3.573-10.13,0.056c-7.909,6.388-14.927,13.699-21.349,21.565
		c-2.583,3.163-2.357,4.786,0.192,8.012c4.515,5.716,8.942,11.502,13.435,17.237c0.631,0.805,0.724,1.447,0.274,2.436
		c-1.572,3.463-2.961,7.008-4.514,10.48c-0.237,0.529-0.93,1.109-1.488,1.2c-7.804,1.266-15.621,2.448-23.433,3.658
		c-3.601,0.558-5.068,2.295-5.07,6.012c-0.006,9.51-0.003,19.019-0.002,28.529c0,4.828,1.289,6.223,6.046,6.886
		c7.268,1.012,14.519,2.136,21.786,3.155c1.209,0.17,1.777,0.652,2.225,1.838c1.404,3.715,2.976,7.368,4.58,11.003
		c0.387,0.877,0.49,1.49-0.158,2.271c-1.125,1.357-2.134,2.81-3.209,4.209c-3.504,4.558-7.057,9.078-10.508,13.675
		c-1.811,2.413-1.701,4.668,0.095,7.053c0.479,0.636,0.926,1.311,1.485,1.871c6.874,6.884,13.735,13.781,20.671,20.603
		c2.675,2.631,4.883,2.643,7.863,0.376c6.024-4.584,12.036-9.185,18.101-13.715c0.506-0.378,1.485-0.558,2.058-0.34
		c3.447,1.314,6.83,2.796,10.258,4.162c0.862,0.344,1.346,0.699,1.499,1.752c1.146,7.88,2.391,15.746,3.604,23.617
		c0.542,3.517,2.153,4.911,5.732,4.913c9.908,0.006,19.817,0.007,29.725,0c3.46-0.002,5.053-1.051,5.641-4.423
		c1.367-7.84,2.548-15.713,3.704-23.588c0.192-1.306,0.663-1.937,1.898-2.407c3.287-1.253,6.533-2.623,9.733-4.084
		c1.058-0.483,1.706-0.34,2.573,0.349c5.613,4.463,11.265,8.877,16.92,13.288c3.487,2.72,5.033,2.875,8.529,0.207
		c8.418-6.421,15.603-14.121,22.339-22.237c2.741-3.303,2.584-4.879-0.081-8.288c-4.486-5.74-8.924-11.517-13.42-17.249
		c-0.642-0.819-0.735-1.457-0.282-2.438c1.474-3.197,2.884-6.43,4.162-9.71c0.489-1.256,1.121-1.861,2.478-2.056
		c7.713-1.104,15.413-2.301,23.12-3.452c2.939-0.439,4.726-2.33,4.735-5.282c0.031-10.25,0.032-20.5-0.003-30.75
		c-0.009-2.778-1.621-4.616-4.348-5.047c-7.922-1.251-15.848-2.48-23.781-3.654c-0.982-0.145-1.447-0.492-1.814-1.421
		c-1.483-3.75-3-7.49-4.672-11.157c-0.491-1.077-0.344-1.708,0.314-2.555c4.465-5.756,8.92-11.522,13.3-17.343
		C236.747,92.635,237.176,91.314,237.847,89.966z"/>
	<path style="fill:#323232;" d="M114.401,149.876c0.083-19.931,15.864-35.566,35.802-35.471
		c19.92,0.096,35.557,15.913,35.434,35.842c-0.123,19.914-15.953,35.528-35.891,35.402
		C129.933,185.525,114.319,169.722,114.401,149.876z"/>
</g>
</svg>
